<svg width="32" height="31" viewBox="0 0 32 31" fill="none" xmlns="http://www.w3.org/2000/svg">
<path d="M16 1.66666H3.99998C3.29274 1.66666 2.61446 1.94761 2.11436 2.4477C1.61426 2.9478 1.33331 3.62608 1.33331 4.33332V25.6667C1.33331 26.3739 1.61426 27.0522 2.11436 27.5523C2.61446 28.0524 3.29274 28.3333 3.99998 28.3333H20C20.7072 28.3333 21.3855 28.0524 21.8856 27.5523C22.3857 27.0522 22.6666 26.3739 22.6666 25.6667V8.33332L16 1.66666Z" fill="#D9D9D9" stroke="black" stroke-width="2" stroke-linecap="round" stroke-linejoin="round"/>
<path d="M14.6667 1.66666V6.99999C14.6667 7.70723 14.9476 8.38551 15.4477 8.88561C15.9478 9.38571 16.6261 9.66666 17.3334 9.66666H22.6667" stroke="black" stroke-width="2" stroke-linecap="round" stroke-linejoin="round"/>
<path d="M9.33335 11H6.66669" stroke="black" stroke-width="2" stroke-linecap="round" stroke-linejoin="round"/>
<path d="M11.0064 16.1666H6.66028" stroke="black" stroke-width="2" stroke-linecap="round" stroke-linejoin="round"/>
<path d="M11.0255 21.3334H6.64117" stroke="black" stroke-width="2" stroke-linecap="round" stroke-linejoin="round"/>
<path d="M14 24.0001L15.5 21.1001C15.6631 20.7762 15.9111 20.5028 16.2176 20.309C16.5241 20.1153 16.8775 20.0085 17.24 20.0001H28C28.3055 19.9996 28.6071 20.069 28.8816 20.2032C29.1561 20.3373 29.3963 20.5326 29.5836 20.774C29.7709 21.0153 29.9004 21.2964 29.9622 21.5956C30.024 21.8949 30.0164 22.2043 29.94 22.5001L28.4 28.5001C28.2886 28.9317 28.0362 29.3136 27.6829 29.5854C27.3296 29.8571 26.8957 30.0031 26.45 30.0001H12C11.4696 30.0001 10.9609 29.7894 10.5858 29.4143C10.2107 29.0392 10 28.5305 10 28.0001V15.0001C10 14.4697 10.2107 13.961 10.5858 13.5859C10.9609 13.2108 11.4696 13.0001 12 13.0001H15.9C16.2345 12.9968 16.5645 13.0775 16.8597 13.2347C17.1549 13.3919 17.406 13.6207 17.59 13.9001L18.4 15.1001C18.5821 15.3766 18.83 15.6036 19.1215 15.7607C19.413 15.9178 19.7389 16 20.07 16.0001H26C26.5304 16.0001 27.0391 16.2108 27.4142 16.5859C27.7893 16.961 28 17.4697 28 18.0001V20.0001" fill="#FFC240"/>
<path d="M14 24.0001L15.5 21.1001C15.6631 20.7762 15.9111 20.5028 16.2176 20.309C16.5241 20.1153 16.8775 20.0085 17.24 20.0001H28M28 20.0001C28.3055 19.9996 28.6071 20.069 28.8816 20.2032C29.1561 20.3373 29.3963 20.5326 29.5836 20.774C29.7709 21.0153 29.9004 21.2964 29.9622 21.5956C30.024 21.8949 30.0164 22.2043 29.94 22.5001L28.4 28.5001C28.2886 28.9317 28.0362 29.3136 27.6829 29.5854C27.3296 29.8571 26.8957 30.0031 26.45 30.0001H12C11.4696 30.0001 10.9609 29.7894 10.5858 29.4143C10.2107 29.0392 10 28.5305 10 28.0001V15.0001C10 14.4697 10.2107 13.961 10.5858 13.5859C10.9609 13.2108 11.4696 13.0001 12 13.0001H15.9C16.2345 12.9968 16.5645 13.0775 16.8597 13.2347C17.1549 13.3919 17.406 13.6207 17.59 13.9001L18.4 15.1001C18.5821 15.3766 18.83 15.6036 19.1215 15.7607C19.413 15.9178 19.7389 16 20.07 16.0001H26C26.5304 16.0001 27.0391 16.2108 27.4142 16.5859C27.7893 16.961 28 17.4697 28 18.0001V20.0001Z" stroke="black" stroke-width="2" stroke-linecap="round" stroke-linejoin="round"/>
</svg>
