<svg width="48" height="48" viewBox="0 0 48 48" fill="none" xmlns="http://www.w3.org/2000/svg">
<path d="M24 8.66666H12C11.2927 8.66666 10.6145 8.94761 10.1144 9.4477C9.61426 9.9478 9.33331 10.6261 9.33331 11.3333V32.6667C9.33331 33.3739 9.61426 34.0522 10.1144 34.5523C10.6145 35.0524 11.2927 35.3333 12 35.3333H28C28.7072 35.3333 29.3855 35.0524 29.8856 34.5523C30.3857 34.0522 30.6666 33.3739 30.6666 32.6667V15.3333L24 8.66666Z" fill="#D9D9D9" stroke="black" stroke-width="2" stroke-linecap="round" stroke-linejoin="round"/>
<path d="M22.6667 8.66666V14C22.6667 14.7072 22.9476 15.3855 23.4477 15.8856C23.9478 16.3857 24.6261 16.6667 25.3334 16.6667H30.6667" stroke="black" stroke-width="2" stroke-linecap="round" stroke-linejoin="round"/>
<path d="M23 33L24.5 30.1C24.6631 29.7761 24.9111 29.5027 25.2176 29.309C25.5241 29.1152 25.8775 29.0084 26.24 29H37C37.3055 28.9995 37.6071 29.0689 37.8816 29.2031C38.1561 29.3372 38.3963 29.5325 38.5836 29.7739C38.7709 30.0153 38.9004 30.2963 38.9622 30.5956C39.024 30.8948 39.0164 31.2042 38.94 31.5L37.4 37.5C37.2886 37.9316 37.0362 38.3135 36.6829 38.5853C36.3296 38.8571 35.8957 39.003 35.45 39H21C20.4696 39 19.9609 38.7893 19.5858 38.4142C19.2107 38.0391 19 37.5304 19 37V24C19 23.4696 19.2107 22.9609 19.5858 22.5858C19.9609 22.2107 20.4696 22 21 22H24.9C25.2345 21.9967 25.5645 22.0774 25.8597 22.2346C26.1549 22.3919 26.406 22.6206 26.59 22.9L27.4 24.1C27.5821 24.3765 27.83 24.6035 28.1215 24.7606C28.413 24.9177 28.7389 25 29.07 25H35C35.5304 25 36.0391 25.2107 36.4142 25.5858C36.7893 25.9609 37 26.4696 37 27V29" fill="#FFC240"/>
<path d="M23 33L24.5 30.1C24.6631 29.7761 24.9111 29.5027 25.2176 29.309C25.5241 29.1152 25.8775 29.0084 26.24 29H37M37 29C37.3055 28.9995 37.6071 29.0689 37.8816 29.2031C38.1561 29.3372 38.3963 29.5325 38.5836 29.7739C38.7709 30.0153 38.9004 30.2963 38.9622 30.5956C39.024 30.8948 39.0164 31.2042 38.94 31.5L37.4 37.5C37.2886 37.9316 37.0362 38.3135 36.6829 38.5853C36.3296 38.8571 35.8957 39.003 35.45 39H21C20.4696 39 19.9609 38.7893 19.5858 38.4142C19.2107 38.0391 19 37.5304 19 37V24C19 23.4696 19.2107 22.9609 19.5858 22.5858C19.9609 22.2107 20.4696 22 21 22H24.9C25.2345 21.9967 25.5645 22.0774 25.8597 22.2346C26.1549 22.3919 26.406 22.6206 26.59 22.9L27.4 24.1C27.5821 24.3765 27.83 24.6035 28.1215 24.7606C28.413 24.9177 28.7389 25 29.07 25H35C35.5304 25 36.0391 25.2107 36.4142 25.5858C36.7893 25.9609 37 26.4696 37 27V29Z" stroke="black" stroke-width="2" stroke-linecap="round" stroke-linejoin="round"/>
</svg>
